# xmcd
# Track frame offsets:
# 150
# 15218
# 28966
# 42207
# 56288
# 68091
# 85035
# 96733
# 110313
# 123190
# 135618
# 155744
#
# Disc length: 2273 seconds
# Revision: 2
# Processed by: cddbd v1.5.2PL0 Copyright (c) Steve Scherf et al.
# Submitted via: VisiTrax 2.11.2.271 - For more info visit www.synapsa.com
#
DISCID=9508df0c
DTITLE=Slim Dusty - Just Slim With Old Friends
DYEAR=1977
DGENRE=Australian Country
TTITLE0=About This Hat
TTITLE1=I'll Meet Him Tomorrow
TTITLE2=That Old Blue Dog Of Mine
TTITLE3=The Round Table
TTITLE4=Gates
TTITLE5=Old Gilbert
TTITLE6=Bush Poet Of Australia
TTITLE7=Stock Horses
TTITLE8=Joe Palmer's Ghost
TTITLE9=The Drover's Yarn
TTITLE10=Lawson's Ghost
TTITLE11=Catching Yellowbelly (In The Old Barcoo)
EXTD=1977 EMI Music Australia and 1996 EMI Music Australia
EXTT0=
EXTT1=
EXTT2=
EXTT3=
EXTT4=
EXTT5=
EXTT6=
EXTT7=
EXTT8=
EXTT9=
EXTT10=
EXTT11=
PLAYORDER=
